<svg width="800" height="800" viewBox="0 0 800 800" fill="none" xmlns="http://www.w3.org/2000/svg">
<path d="M476.8 144C539.525 144 570.889 144 594.847 156.207C615.921 166.945 633.055 184.079 643.793 205.153C656 229.111 656 260.475 656 323.2V476.8C656 539.525 656 570.889 643.793 594.847C633.055 615.921 615.921 633.055 594.847 643.793C570.889 656 539.525 656 476.8 656H323.2C260.475 656 229.111 656 205.153 643.793C184.079 633.055 166.945 615.921 156.207 594.847C144 570.889 144 539.525 144 476.8V323.2C144 260.475 144 229.111 156.207 205.153C166.945 184.079 184.079 166.945 205.153 156.207C229.111 144 260.475 144 323.2 144H476.8ZM316.8 240C289.917 240 276.476 240 266.208 245.231C257.176 249.833 249.833 257.176 245.231 266.208C240 276.476 240 289.917 240 316.8V483.2C240 510.083 240 523.524 245.231 533.792C249.833 542.824 257.176 550.167 266.208 554.769C276.476 560 289.917 560 316.8 560H483.2C510.083 560 523.524 560 533.792 554.769C542.824 550.167 550.167 542.824 554.769 533.792C560 523.524 560 510.083 560 483.2V316.8C560 289.917 560 276.476 554.769 266.208C550.167 257.176 542.824 249.833 533.792 245.231C523.524 240 510.083 240 483.2 240H316.8Z" fill="#DF6035"/>
</svg>
